<?xml version="1.0" encoding="UTF-8"?>
<!DOCTYPE svg PUBLIC "-//W3C//DTD SVG 1.1//EN" "http://www.w3.org/Graphics/SVG/1.1/DTD/svg11.dtd">
<svg xmlns="http://www.w3.org/2000/svg" xmlns:xlink="http://www.w3.org/1999/xlink">
   <symbol viewBox="0 0 512 512" id="angle-down">
      <path d="M233.079 358.33l.293.298c12.495 12.496 32.757 12.496 45.252 0l160.004-159.996c12.496-12.496 12.496-32.757 0-45.253-12.496-12.497-32.757-12.497-45.257-.001L256 290.746 118.628 153.372c-12.499-12.496-32.757-12.496-45.256 0-12.496 12.497-12.496 32.757 0 45.254L233.079 358.33z" />
   </symbol>
   <symbol viewBox="0 0 512 512" id="angle-left">
      <path d="M153.372 233.372l.298-.293L313.374 73.372c12.497-12.496 32.757-12.496 45.254 0 12.496 12.5 12.496 32.757 0 45.256L221.254 256l137.368 137.371c12.496 12.5 12.496 32.761-.001 45.257-12.496 12.496-32.757 12.496-45.253 0L153.372 278.624c-12.496-12.495-12.496-32.757 0-45.252z" />
   </symbol>
   <symbol viewBox="0 0 512 512" id="angle-right">
      <path d="M358.33 278.921c.1-.097.199-.195.297-.293 12.497-12.497 12.497-32.758.001-45.254L198.632 73.373c-12.496-12.497-32.757-12.497-45.253 0-12.497 12.496-12.497 32.756-.001 45.253l137.368 137.372-137.374 137.376c-12.496 12.496-12.496 32.757 0 45.254 12.497 12.496 32.757 12.496 45.254 0L358.33 278.921z" />
   </symbol>
   <symbol viewBox="0 0 512 512" id="angle-up">
      <path d="M278.628 153.372l.293.298 159.707 159.704c12.496 12.497 12.496 32.757 0 45.254-12.5 12.496-32.757 12.496-45.257 0L256 221.254 118.628 358.622c-12.499 12.496-32.76 12.496-45.256-.001-12.496-12.496-12.496-32.757 0-45.253l160.004-159.996c12.495-12.496 32.757-12.496 45.252 0z" />
   </symbol>
   <symbol viewBox="0 0 512 512" id="arrow-back">
      <path d="M223.93 288H416c17.673 0 32-14.327 32-32 0-17.673-14.327-32-32-32H223.93v-64.451c0-12.753-7.7-24.26-19.48-29.143-11.797-4.883-25.37-2.202-34.384 6.846l-96.834 96.407c-12.31 12.309-12.31 32.284 0 44.611l96.834 96.494A31.585 31.585 0 0 0 192.38 384c4.063 0 8.16-.785 12.07-2.407 11.78-4.883 19.48-16.373 19.48-29.143V288z" />
   </symbol>
   <symbol viewBox="0 0 512 512" id="arrow-next">
      <path d="M288.07 224H96c-17.673 0-32 14.327-32 32 0 17.673 14.327 32 32 32h192.07v64.451c0 12.753 7.7 24.26 19.48 29.143 11.797 4.883 25.37 2.202 34.384-6.846l96.834-96.407c12.309-12.309 12.309-32.284 0-44.611l-96.834-96.494A31.585 31.585 0 0 0 319.62 128c-4.063 0-8.16.785-12.07 2.407-11.78 4.883-19.48 16.373-19.48 29.143V224z" />
   </symbol>
   <symbol viewBox="0 0 512 512" id="backorder">
      <path d="M470.627 73.373a32.12 32.12 0 0 1 4.101 5.02c8.201 12.42 6.834 29.3-4.101 40.234l-64 64c-12.496 12.497-32.758 12.497-45.254 0-12.497-12.496-12.497-32.758 0-45.254l9.375-9.376H128c-17.673 0-32 14.327-32 32v256c0 17.673 14.327 32 32 32h256c17.673 0 32-14.327 32-32V305.452c0-17.674 14.327-32 32-32 17.673 0 32 14.326 32 32v110.545c0 53.019-42.981 96-96 96H128c-53.02 0-96-42.981-96-96v-256c0-53.019 42.98-96 96-96h242.742l-9.369-9.37c-12.497-12.496-12.497-32.758 0-45.254 12.496-12.497 32.758-12.497 45.254 0l64 64z" />
      <path d="M160 335.997c0-8.837 7.163-16 16-16h160c8.837 0 16 7.163 16 16s-7.163 16-16 16H176c-8.837 0-16-7.163-16-16zm16-80c-8.837 0-16 7.163-16 16s7.163 16 16 16h160c8.837 0 16-7.163 16-16s-7.163-16-16-16H176z" fill="#000" />
   </symbol>
   <symbol viewBox="0 0 512 512" id="calendar">
      <path d="M224 288c0-17.673 14.327-32 32-32 17.673 0 32 14.327 32 32 0 17.673-14.327 32-32 32-17.673 0-32-14.327-32-32zm-64-32c-17.673 0-32 14.327-32 32 0 17.673 14.327 32 32 32 17.673 0 32-14.327 32-32 0-17.673-14.327-32-32-32zm160 32c0-17.673 14.327-32 32-32 17.673 0 32 14.327 32 32 0 17.673-14.327 32-32 32-17.673 0-32-14.327-32-32zm-160 64c-17.673 0-32 14.327-32 32 0 17.673 14.327 32 32 32 17.673 0 32-14.327 32-32 0-17.673-14.327-32-32-32zm64 32c0-17.673 14.327-32 32-32 17.673 0 32 14.327 32 32 0 17.673-14.327 32-32 32-17.673 0-32-14.327-32-32zm128-32c-17.673 0-32 14.327-32 32 0 17.673 14.327 32 32 32 17.673 0 32-14.327 32-32 0-17.673-14.327-32-32-32z" />
      <path fill-rule="evenodd" clip-rule="evenodd" d="M128 32c0-17.673 14.327-32 32-32 17.673 0 32 14.327 32 32h128c0-17.673 14.327-32 32-32 17.673 0 32 14.327 32 32 70.692 0 128 57.308 128 128v224c0 70.692-57.308 128-128 128H128C57.308 512 0 454.692 0 384V160C0 89.308 57.308 32 128 32zm192 64v32c0 17.673 14.327 32 32 32 17.673 0 32-14.327 32-32V96c35.346 0 64 28.654 64 64v32H64v-32c0-35.346 28.654-64 64-64v32c0 17.673 14.327 32 32 32 17.673 0 32-14.327 32-32V96h128zM64 224v160c0 35.346 28.654 64 64 64h256c35.346 0 64-28.654 64-64V224H64z" />
   </symbol>
   <symbol viewBox="0 0 512 512" id="cards2">
      <path d="M64 0C28.654 0 0 28.653 0 64v96c0 35.347 28.654 64 64 64h96c35.346 0 64-28.653 64-64V64c0-35.347-28.654-64-64-64H64zm288 0c-35.346 0-64 28.653-64 64v96c0 35.347 28.654 64 64 64h96c35.346 0 64-28.653 64-64V64c0-35.347-28.654-64-64-64h-96zm-64 352c0-35.347 28.654-64 64-64h96c35.346 0 64 28.653 64 64v96c0 35.347-28.654 64-64 64h-96c-35.346 0-64-28.653-64-64v-96zM64 288c-35.346 0-64 28.653-64 64v96c0 35.347 28.654 64 64 64h96c35.346 0 64-28.653 64-64v-96c0-35.347-28.654-64-64-64H64z" />
   </symbol>
   <symbol viewBox="0 0 512 512" id="caret-bottom">
      <g clip-path="url(#clip0)">
         <path d="M16.411 118.158c9.714-9.553 22.1-14.87 34.789-15.951V102h409.6v.207c12.689 1.081 25.075 6.398 34.789 15.951a54.574 54.574 0 0 1 0 78.023L294.896 393.782C284.395 404.164 270.884 410 256 410s-28.395-5.836-38.896-16.218L16.411 196.181a54.574 54.574 0 0 1 0-78.023z" />
      </g>
      <defs>
         <clipPath id="clip0">
            <path d="M0 0h512v512H0z" />
         </clipPath>
      </defs>
   </symbol>
   <symbol viewBox="0 0 512 512" id="check">
      <path d="M393.373 137.373c12.496-12.497 32.757-12.497 45.254-.001 12.497 12.497 12.497 32.758.001 45.255l-191.99 192c-6.226 6.226-14.378 9.35-22.537 9.373-8.224.026-16.456-3.098-22.73-9.373l-127.999-128c-12.496-12.496-12.496-32.758 0-45.254 12.497-12.497 32.758-12.497 45.255 0l105.377 105.378 169.369-169.378z" />
   </symbol>
   <symbol viewBox="0 0 512 512" id="delivery">
      <path fill-rule="evenodd" clip-rule="evenodd" d="M320 16H64c-17.673 0-32 14.327-32 32 0 17.673 14.327 32 32 32h224v96c0 35.346 28.653 64 64 64h93.535l1.22 3.052-12.535 62.675A96.445 96.445 0 0 0 416 304c-41.799 0-77.359 26.714-90.537 64H218.537c-13.178-37.286-48.738-64-90.537-64-53.02 0-96 42.981-96 96s42.98 96 96 96c41.799 0 77.359-26.714 90.537-64h106.926c13.178 37.286 48.738 64 90.537 64 53.019 0 96-42.981 96-96 0-21.919-7.346-42.122-19.71-58.282l17.223-86.114a64.007 64.007 0 0 0-3.335-36.321L453.757 88.231C444.038 63.933 420.504 48 394.335 48H352c0-17.673-14.327-32-32-32zm32 160h67.935l-25.6-64H352v64zM160 400c0 17.673-14.327 32-32 32-17.673 0-32-14.327-32-32 0-17.673 14.327-32 32-32 17.673 0 32 14.327 32 32zm256 32c17.673 0 32-14.327 32-32 0-17.673-14.327-32-32-32-17.673 0-32 14.327-32 32 0 17.673 14.327 32 32 32z" />
      <path d="M0 144c0-17.673 14.327-32 32-32h128c17.673 0 32 14.327 32 32 0 17.673-14.327 32-32 32H32c-17.673 0-32-14.327-32-32zm64 64c-17.673 0-32 14.327-32 32 0 17.673 14.327 32 32 32h96c17.673 0 32-14.327 32-32 0-17.673-14.327-32-32-32H64z" />
   </symbol>
   <symbol viewBox="0 0 512 512" id="diagram">
      <path d="M512 64c0 35.346-28.654 64-64 64-23.689 0-44.372-12.87-55.438-32H288v128h104.562c11.066-19.13 31.749-32 55.438-32 35.346 0 64 28.654 64 64 0 35.346-28.654 64-64 64-23.689 0-44.372-12.87-55.438-32H288v128h104.562c11.066-19.13 31.749-32 55.438-32 35.346 0 64 28.654 64 64 0 35.346-28.654 64-64 64-23.689 0-44.372-12.87-55.438-32H224V288H119.438C108.372 307.13 87.689 320 64 320c-35.346 0-64-28.654-64-64 0-35.346 28.654-64 64-64 23.689 0 44.372 12.87 55.438 32H224V32h168.562C403.628 12.87 424.311 0 448 0c35.346 0 64 28.654 64 64z" />
   </symbol>
   <symbol viewBox="0 0 512 512" id="document">
      <path d="M192 128c-17.673 0-32 14.327-32 32 0 17.673 14.327 32 32 32h128c17.673 0 32-14.327 32-32 0-17.673-14.327-32-32-32H192zm-32 128c0-17.673 14.327-32 32-32h128c17.673 0 32 14.327 32 32 0 17.673-14.327 32-32 32H192c-17.673 0-32-14.327-32-32zm32 64c-17.673 0-32 14.327-32 32 0 17.673 14.327 32 32 32h128c17.673 0 32-14.327 32-32 0-17.673-14.327-32-32-32H192z" />
      <path fill-rule="evenodd" clip-rule="evenodd" d="M384 0H128C57.308 0 0 57.308 0 128v256c0 70.692 57.308 128 128 128h256c70.692 0 128-57.308 128-128V128C512 57.308 454.692 0 384 0zM64 128c0-35.346 28.654-64 64-64h256c35.346 0 64 28.654 64 64v256c0 35.346-28.654 64-64 64H128c-35.346 0-64-28.654-64-64V128z" />
   </symbol>
   <symbol viewBox="0 0 512 512" id="ellipsis-v">
      <path d="M192 64c0-35.346 28.654-64 64-64 35.346 0 64 28.654 64 64 0 35.346-28.654 64-64 64-35.346 0-64-28.654-64-64zm0 192c0-35.346 28.654-64 64-64 35.346 0 64 28.654 64 64 0 35.346-28.654 64-64 64-35.346 0-64-28.654-64-64zm0 192c0-35.346 28.654-64 64-64 35.346 0 64 28.654 64 64 0 35.346-28.654 64-64 64-35.346 0-64-28.654-64-64z" />
   </symbol>
   <symbol viewBox="0 0 512 513" id="enter">
      <path d="M448 111.932c0-17.774-14.327-32.182-31.999-32.182-17.673 0-32 14.408-32 32.182v160.909H173.253l41.371-41.608c12.497-12.568 12.497-32.944 0-45.512-12.496-12.567-32.757-12.567-45.254 0l-95.998 96.546c-12.496 12.568-12.496 32.944 0 45.512l95.998 96.545c12.497 12.568 32.758 12.568 45.254 0 12.497-12.568 12.497-32.944 0-45.512l-41.371-41.607h239.19c.628 0 1.253-.015 1.873-.044a32.44 32.44 0 0 0 1.685.044c17.672 0 31.999-14.409 31.999-32.182V111.932z" />
   </symbol>
   <symbol viewBox="0 0 512 512" id="esc">
      <path fill-rule="evenodd" clip-rule="evenodd" d="M41.297 232.443c0-9.394 4.424-18.16 13.299-26.374 9.798-8.439 19.822-12.659 30.096-12.659 10.05 0 19.124 3.868 27.298 11.604 7.699 7.737 11.549 16.879 11.549 27.429H41.297zm74.192-64.717c-9.1-3.768-19.499-5.627-31.147-5.627-25.198 0-45.62 9.018-61.244 27.077C7.699 207.462 0 230.42 0 258.099c0 27.429 7.25 49.457 21.698 66.11 14.698 16.628 34.671 24.967 59.844 24.967 19.623 0 37.221-5.852 52.845-17.582 16.323-12.207 24.497-26.248 24.497-42.198 0-11.73-6.074-17.582-18.198-17.582-3.975 0-7.274 1.055-9.974 3.165-2.675 2.109-4.724 4.923-6.124 8.439l-3.15 9.495c-2.1 7.259-6.649 13.237-13.649 17.934-6.999 4.697-14.823 7.033-23.447 7.033-13.074 0-23.898-5.049-32.547-15.121-9.1-9.846-13.649-22.631-13.649-38.33 0-.226.475-.352 1.4-.352h105.365c3.949 0 7.024-.175 9.249-.527 2.225-.352 3.899-1.356 5.074-2.989 1.175-1.633 1.875-3.994 2.1-7.033.25-3.039.35-7.259.35-12.659 0-22.506-7.249-41.394-21.698-56.616-7.249-7.284-15.398-12.785-24.497-16.527zm391.262 103.736c-3.5-3.29-7.925-4.923-13.299-4.923-6.774 0-12.024 3.039-15.749 9.143l-4.199 14.417c-2.325 8.917-6.65 15.774-12.949 20.572-6.274 4.797-13.549 7.209-21.698 7.209-13.748 0-24.472-5.501-32.197-16.528-7.674-11.027-11.548-26.248-11.548-45.714 0-18.989 4.074-34.11 12.273-45.363 8.15-11.253 18.998-16.879 32.522-16.879 15.874 0 25.573 5.501 29.047 16.528-5.574 1.18-9.599 3.34-12.074 6.505-2.449 3.165-3.649 7.334-3.649 12.484 0 6.103 2.375 11.303 7.174 15.648 4.75 4.345 10.649 6.505 17.673 6.505 8.849 0 16.024-3.114 21.498-9.318 5.5-6.204 8.224-14.116 8.224-23.737 0-16.175-6.424-29.664-19.223-40.439-12.848-10.323-28.847-15.473-47.945-15.473-25.447 0-45.845 8.917-61.269 26.726-14.923 17.582-22.398 40.54-22.398 68.923 0 27.202 7.25 49.105 21.698 65.758 15.174 17.105 34.897 25.67 59.144 25.67 10.974 0 21.123-2.009 30.447-5.978 9.324-3.993 17.374-9.369 24.148-16.176 5.149-5.852 9.699-12.96 13.674-21.274 3.949-8.339 5.924-15.523 5.924-21.627 0-5.149-1.725-9.369-5.249-12.659zm-234.125-31.989c-3.275-.478-6.475-.93-9.624-1.407-3.175-.477-6.375-.929-9.649-1.407-7.225-1.406-13.049-3.818-17.499-7.208-4.424-3.391-6.624-7.913-6.624-13.539 0-6.556 2.9-11.956 8.724-16.176 5.849-4.22 12.974-6.329 21.373-6.329 8.599 0 16.023 1.934 22.198 5.802 6.174 3.868 9.399 8.49 9.649 13.89l.35 11.253c.45 10.072 6.049 15.121 16.798 15.121 10.949 0 16.448-5.853 16.448-17.583 0-1.633-.125-3.466-.374-5.45a88.467 88.467 0 0 0-1.05-6.858c-.675-4.219-1.05-7.861-1.05-10.901 0-1.884.125-3.868.375-5.978.225-2.11.575-4.219 1.05-6.329 0-1.181.05-2.412.175-3.693.125-1.281.175-2.411.175-3.34 0-1.181.025-1.985.15-2.462.125-.477.175-.954.175-1.406 0-10.324-5.475-15.473-16.424-15.473-8.174 0-13.299 3.29-15.398 9.846-8.874-5.149-19.723-7.736-32.547-7.736-10.274 0-19.598 1.406-27.997 4.22-8.4 2.813-15.649 6.681-21.698 11.604-6.075 4.923-10.799 10.901-14.199 17.934-3.349 7.033-5.074 14.769-5.074 23.209 0 9.143 1.65 16.753 4.899 22.857 3.275 6.104 8.074 11.077 14.374 14.945 6.299 3.868 14.098 6.908 23.422 9.143 9.35 2.235 20.073 4.044 32.197 5.451 20.548 2.109 30.822 9.368 30.822 21.802 0 7.259-2.974 13.187-8.949 17.758-5.924 4.571-13.474 6.857-22.548 6.857-13.773 0-24.922-2.587-33.421-7.736-8.524-5.149-12.924-11.831-13.124-20.044-.25-9.369-1.175-15.824-2.825-19.341-1.625-3.993-6.174-5.978-13.648-5.978-10.949 0-16.449 5.375-16.449 16.176 0 3.29.375 6.43 1.05 9.495.475 2.587.875 5.324 1.25 8.263.35 2.939.525 5.677.525 8.264 0 3.29-.05 5.802-.175 7.56a63.587 63.587 0 0 1-.55 5.099c-.225 1.633-.5 3.517-.85 5.627-.375 2.11-.775 4.923-1.25 8.439 0 12.182 5.975 18.286 17.873 18.286 9.999 0 15.624-4.446 16.799-13.363 12.599 7.033 26.572 10.55 41.996 10.55 20.523 0 37.571-5.174 51.095-15.473 13.748-11.479 20.647-25.796 20.647-42.901 0-28.609-20.547-45.714-61.593-51.34z" />
   </symbol>
   <symbol viewBox="0 0 512 512" id="filter">
      <path fill-rule="evenodd" clip-rule="evenodd" d="M64 32C64 14.327 78.327 0 96 0c17.673 0 32 14.327 32 32v197.463c37.286 13.178 64 48.738 64 90.537 0 41.799-26.714 77.359-64 90.537V480c0 17.673-14.327 32-32 32-17.673 0-32-14.327-32-32v-69.463C26.714 397.359 0 361.799 0 320c0-41.799 26.714-77.359 64-90.537V32zm64 288c0 17.673-14.327 32-32 32-17.673 0-32-14.327-32-32 0-17.673 14.327-32 32-32 17.673 0 32 14.327 32 32z" />
      <path fill-rule="evenodd" clip-rule="evenodd" d="M224 32c0-17.673 14.327-32 32-32 17.673 0 32 14.327 32 32v5.463C325.286 50.64 352 86.2 352 128c0 41.799-26.714 77.359-64 90.537V480c0 17.673-14.327 32-32 32-17.673 0-32-14.327-32-32V218.537c-37.286-13.178-64-48.738-64-90.537 0-41.799 26.714-77.359 64-90.537V32zm64 96c0 17.673-14.327 32-32 32-17.673 0-32-14.327-32-32 0-17.673 14.327-32 32-32 17.673 0 32 14.327 32 32zM416 0c-17.673 0-32 14.327-32 32v261.463c-37.286 13.178-64 48.738-64 90.537 0 41.799 26.714 77.359 64 90.537V480c0 17.673 14.327 32 32 32 17.673 0 32-14.327 32-32v-5.463c37.286-13.178 64-48.738 64-90.537 0-41.799-26.714-77.359-64-90.537V32c0-17.673-14.327-32-32-32zm0 416c17.673 0 32-14.327 32-32 0-17.673-14.327-32-32-32-17.673 0-32 14.327-32 32 0 17.673 14.327 32 32 32z" />
   </symbol>
   <symbol viewBox="0 0 512 512" id="heart-full">
      <path fill-rule="evenodd" clip-rule="evenodd" d="M255.99 480c-17.273 0-33.472-6.986-45.6-19.696L31.592 272.925a33.239 33.239 0 0 1-5.774-8.314C1.32 228.275-6.062 184.818 5.036 141.544c13.511-52.615 55.943-94.23 108.122-106.01C123.581 33.194 133.956 32 144.025 32c53.674 0 89.706 31.907 112.097 63.085C278.624 63.925 314.669 32 367.974 32c10.714 0 21.764 1.377 32.829 4.065 51.6 12.544 93.373 54.324 106.4 106.442 10.778 43.008 3.251 86.232-21.165 122.322a32.762 32.762 0 0 1-5.632 8.096L301.594 460.304C289.482 473.014 273.267 480 255.99 480z" />
   </symbol>
   <symbol viewBox="0 0 512 512" id="heart">
      <path d="M80.78 230.381l175.21 183.613 175.213-183.632c.112-.164.24-.314.355-.48 15.104-20.64 19.962-45.813 13.687-70.901-7.175-28.655-30.368-51.686-59.111-58.688-6.275-1.51-12.387-2.29-18.16-2.29-55.638 0-81.404 75.812-81.68 76.576-4.406 13.356-16.614 22.384-30.288 22.384h-.208c-13.769-.102-25.961-9.21-30.224-22.716-.192-.631-25.446-76.244-81.549-76.244-5.469 0-11.26.68-17.179 2.025-28.55 6.421-52.645 29.9-59.948 58.389-6.482 25.287-1.673 50.674 13.544 71.465.096.166.225.332.337.499zM255.99 480c-17.273 0-33.472-6.986-45.6-19.696L31.592 272.925a33.239 33.239 0 0 1-5.774-8.314C1.32 228.275-6.062 184.818 5.036 141.544c13.511-52.615 55.943-94.23 108.122-106.01C123.581 33.194 133.956 32 144.025 32c53.674 0 89.706 31.907 112.097 63.085C278.624 63.925 314.669 32 367.974 32c10.714 0 21.764 1.377 32.829 4.065 51.6 12.544 93.373 54.324 106.4 106.442 10.778 43.008 3.251 86.232-21.165 122.322a32.762 32.762 0 0 1-5.632 8.096L301.594 460.304C289.482 473.014 273.267 480 255.99 480z" />
   </symbol>
   <symbol viewBox="0 0 512 512" id="hidden">
      <path fill-rule="evenodd" clip-rule="evenodd" d="M445.738 50.3c-16.406-16.4-43.02-16.4-59.395 0l-68.226 68.2c-24.61-6.859-63.247-6.567-71.231-6.507l-1.158.007c-35.694 0-164.38 10.5-242.499 148.5-8.266 14.632 1.221 28.025 7.452 36.801l1.753 2.499c18.599 26.8 38.7 48.2 59.208 65.2L34.32 402.3c-16.375 16.4-16.375 43 0 59.4 8.204 8.2 19.006 12.3 29.714 12.3 10.708 0 21.51-4.1 29.713-12.3l351.991-352c16.376-16.4 16.376-43 0-59.4zM56.05 272.6c26.801-42.1 61.994-72.7 104.889-91 6.607-2.8 13.119-5.2 19.413-7.3-32.813 23-54.292 61.1-54.292 104.2 0 9.9 1.096 19.6 3.287 28.8l-21.291 21.3c-18.003-14.5-35.694-32.8-52.006-56z" />
      <path d="M466.622 203.3c11.397 12 22.513 25.6 33.095 40.9l1.441 2.011c6.262 8.764 15.968 22.391 7.577 37.389-78.026 138-205.02 148.5-240.213 148.5-4.008 0-20.602-.1-24.297-.2l135.292-139c-3.194 27.9-15.279 53-33.502 72.5 36.101-14.4 77.211-41.8 110.4-93.9-8.203-11.7-16.782-22.2-25.486-31.5l35.693-36.7z" />
   </symbol>
   <symbol viewBox="0 0 512 512" id="hr">
      <path fill-rule="evenodd" clip-rule="evenodd" d="M384.8 224H127.2c-17.784 0-32.2 14.327-32.2 32 0 17.673 14.416 32 32.2 32h257.6c17.784 0 32.2-14.327 32.2-32 0-17.673-14.416-32-32.2-32z" fill="#000" />
   </symbol>
   <symbol viewBox="0 0 512 512" id="import-list">
      <path d="M384 0H192C121.308 0 64 57.308 64 128c0 17.673 14.327 32 32 32 17.673 0 32-14.327 32-32 0-35.346 28.654-64 64-64h192c35.346 0 64 28.654 64 64v256c0 35.346-28.654 64-64 64H192c-35.346 0-64-28.654-64-64 0-17.673-14.327-32-32-32-17.673 0-32 14.327-32 32 0 70.692 57.308 128 128 128h192c70.692 0 128-57.308 128-128V128C512 57.308 454.692 0 384 0z" />
      <path d="M0 256c0-17.673 14.327-32 32-32h146.748l-9.375-9.376c-12.497-12.496-12.497-32.758 0-45.254 12.496-12.497 32.758-12.497 45.254 0l64 64c6.25 6.249 9.374 14.439 9.373 22.63.001 8.19-3.123 16.381-9.373 22.63l-64 64c-12.496 12.497-32.758 12.497-45.254 0-12.497-12.496-12.497-32.758 0-45.254l9.375-9.376H32c-17.673 0-32-14.327-32-32zm320-128c-17.673 0-32 14.327-32 32 0 17.673 14.327 32 32 32h64c17.673 0 32-14.327 32-32 0-17.673-14.327-32-32-32h-64zm0 128c0-17.673 14.327-32 32-32h32c17.673 0 32 14.327 32 32 0 17.673-14.327 32-32 32h-32c-17.673 0-32-14.327-32-32zm0 64c-17.673 0-32 14.327-32 32 0 17.673 14.327 32 32 32h64c17.673 0 32-14.327 32-32 0-17.673-14.327-32-32-32h-64z" />
   </symbol>
   <symbol viewBox="0 0 512 512" id="import">
      <path d="M384 0H192C121.308 0 64 57.308 64 128c0 17.673 14.327 32 32 32 17.673 0 32-14.327 32-32 0-35.346 28.654-64 64-64h192c35.346 0 64 28.654 64 64v256c0 35.346-28.654 64-64 64H192c-35.346 0-64-28.654-64-64 0-17.673-14.327-32-32-32-17.673 0-32 14.327-32 32 0 70.692 57.308 128 128 128h192c70.692 0 128-57.308 128-128V128C512 57.308 454.692 0 384 0z" />
      <path d="M0 256c0-17.673 14.327-32 32-32h146.748l-9.375-9.376c-12.497-12.496-12.497-32.758 0-45.254 12.496-12.497 32.758-12.497 45.254 0l64 64c6.25 6.249 9.374 14.439 9.373 22.63.001 8.19-3.123 16.381-9.373 22.63l-64 64c-12.496 12.497-32.758 12.497-45.254 0-12.497-12.496-12.497-32.758 0-45.254l9.375-9.376H32c-17.673 0-32-14.327-32-32z" />
   </symbol>
   <symbol viewBox="0 0 512 512" id="instagram">
      <path fill-rule="evenodd" clip-rule="evenodd" d="M256 384c70.692 0 128-57.308 128-128 0-70.692-57.308-128-128-128-70.692 0-128 57.308-128 128 0 70.692 57.308 128 128 128zm0-64c35.346 0 64-28.654 64-64 0-35.346-28.654-64-64-64-35.346 0-64 28.654-64 64 0 35.346 28.654 64 64 64z" />
      <path d="M384 160c17.673 0 32-14.327 32-32 0-17.673-14.327-32-32-32-17.673 0-32 14.327-32 32 0 17.673 14.327 32 32 32z" fill="#000" />
      <path fill-rule="evenodd" clip-rule="evenodd" d="M160 0h192c88.366 0 160 71.634 160 160v192c0 88.366-71.634 160-160 160H160C71.634 512 0 440.366 0 352V160C0 71.634 71.634 0 160 0zm0 64c-53.019 0-96 42.981-96 96v192c0 53.019 42.981 96 96 96h192c53.019 0 96-42.981 96-96V160c0-53.019-42.981-96-96-96H160z" />
   </symbol>
   <symbol viewBox="0 0 512 512" id="list">
      <path d="M479.97 416H223.73c-17.69 0-32.03 14.327-32.03 32 0 17.673 14.34 32 32.03 32h256.24c17.69 0 32.03-14.327 32.03-32 0-17.673-14.34-32-32.03-32zM64.06 0C28.41 0 0 28.672 0 64c0 35.584 28.635 64 64.06 64 35.553 0 64.06-28.672 64.06-64 0-35.584-28.699-64-64.06-64zm415.878 224h-256.24c-17.69 0-32.03 14.327-32.03 32 0 17.673 14.34 32 32.03 32h256.24c17.69 0 32.03-14.327 32.03-32 0-17.673-14.34-32-32.03-32zM223.698 96h256.24c17.69 0 32.03-14.327 32.03-32 0-17.673-14.34-32-32.03-32h-256.24c-17.69 0-32.03 14.327-32.03 32 0 17.673 14.34 32 32.03 32zM64.06 384A63.85 63.85 0 0 0 0 448c0 35.584 28.635 64 64.06 64 35.553 0 64.06-28.672 64.06-64 0-35.584-28.699-64-64.06-64zm0-192C28.41 192 0 220.672 0 256c0 35.584 28.635 64 64.06 64 35.553 0 64.06-28.672 64.06-64 0-35.584-28.699-64-64.06-64z" />
   </symbol>
   <symbol viewBox="0 0 512 512" id="lock">
      <g clip-path="url(#clip0)">
         <path fill-rule="evenodd" clip-rule="evenodd" d="M96 192v-36C96 69.844 169.846 0 256 0s160 69.844 160 156v36h15.996C458.515 192 480 213.48 480 240.004v224C480 490.523 458.515 512 431.996 512l-351.995.004c-26.52 0-48.001-21.481-48.001-47.996V240c0-26.52 21.481-48 48.001-48H96zm64-36v36h192v-36c0-53.039-42.96-96-96-96s-96 42.961-96 96zm160 164c0 22.051-11.151 41.496-28.123 53.008l16.773 44.726c5.492 14.645-5.334 30.266-20.973 30.266h-63.354c-15.639 0-26.465-15.621-20.973-30.266l16.773-44.726C203.151 361.496 192 342.051 192 320c0-35.348 28.653-64 64-64s64 28.652 64 64z" />
      </g>
      <defs>
         <clipPath id="clip0">
            <path d="M0 0h512v512H0z" />
         </clipPath>
      </defs>
   </symbol>
   <symbol viewBox="0 0 512 512" id="message">
      <path d="M160 143.989c0-8.836 7.163-15.999 16-15.999h160c8.837 0 16 7.163 16 15.999s-7.163 15.999-16 15.999H176c-8.837 0-16-7.163-16-15.999zm16 79.994c-8.837 0-16 7.163-16 15.999s7.163 15.999 16 15.999h160c8.837 0 16-7.163 16-15.999s-7.163-15.999-16-15.999H176z" />
      <path fill-rule="evenodd" clip-rule="evenodd" d="M0 95.993C0 42.977 42.98 0 96 0h320c53.019 0 96 42.977 96 95.993v191.985c0 53.016-42.981 95.993-96 95.993H258.486L96 512V383.971c-53.02 0-96-42.977-96-95.993V95.993zm160 223.984v60.119l76.3-60.12H416c17.673 0 32-14.326 32-31.998V95.993c0-17.672-14.327-31.998-32-31.998H96c-17.673 0-32 14.326-32 31.998v191.985c0 17.672 14.327 31.998 32 31.998l64 .001z" />
   </symbol>
   <symbol viewBox="0 0 512 512" id="order-arrows">
      <path d="M352.003 370.748V64c0-17.673 14.327-32 32-32 17.673 0 32 14.327 32 32v306.742l41.37-41.369c12.496-12.497 32.758-12.497 45.254 0 12.497 12.496 12.497 32.758 0 45.254l-96 96c-12.496 12.497-32.758 12.497-45.254 0l-96-96c-12.497-12.496-12.497-32.758 0-45.254 12.496-12.497 32.758-12.497 45.254 0l41.376 41.375zM246.627 182.627c-12.496 12.497-32.758 12.497-45.254 0l-41.376-41.375V448c0 17.673-14.327 32-32 32-17.673 0-32-14.327-32-32V141.258l-41.37 41.369c-12.496 12.497-32.758 12.497-45.254 0-12.497-12.496-12.497-32.758 0-45.254l95.983-95.983a31.927 31.927 0 0 1 22.268-9.388c8.314-.097 16.659 3.026 23.003 9.37l96 96.001c12.497 12.496 12.497 32.758 0 45.254z" />
   </symbol>
   <symbol viewBox="0 0 512 512" id="pencil">
      <path fill-rule="evenodd" clip-rule="evenodd" d="M327.375 320l154.898-156.118c37.49-37.49 37.49-98.274 0-135.764-37.49-37.49-98.274-37.49-135.765 0L192 183.625V320h135.375zm90.082-181.172l19.561-20.201c12.497-12.496 12.497-32.758 0-45.254-12.497-12.497-32.758-12.497-45.255 0L371.799 93.17l45.658 45.658zm-22.263 22.992L304 256h-48v-48l93.076-92.298 46.118 46.118z" />
      <path d="M96 64c-17.673 0-32 14.327-32 32v320c0 17.673 14.327 32 32 32h320c17.673 0 32-14.327 32-32V288c0-17.673 14.327-32 32-32 17.673 0 32 14.327 32 32v128c0 53.019-42.981 96-96 96H96c-53.02 0-96-42.981-96-96V96C0 42.98 42.98 0 96 0h128c17.673 0 32 14.327 32 32 0 17.673-14.327 32-32 32H96z" />
   </symbol>
   <symbol viewBox="0 0 512 512" id="plus">
      <path fill-rule="evenodd" clip-rule="evenodd" d="M384 224h-96v-96c0-17.673-14.327-32-32-32-17.673 0-32 14.327-32 32v96h-96c-17.673 0-32 14.327-32 32 0 17.673 14.327 32 32 32h96v96c0 17.673 14.327 32 32 32 17.673 0 32-14.327 32-32v-96h96c17.673 0 32-14.327 32-32 0-17.673-14.327-32-32-32z" />
   </symbol>
   <symbol viewBox="0 0 512 512" id="polls">
      <path d="M160 128c-17.673 0-32 14.327-32 32v192c0 17.673 14.327 32 32 32 17.673 0 32-14.327 32-32V160c0-17.673-14.327-32-32-32zm64 96c0-17.673 14.327-32 32-32 17.673 0 32 14.327 32 32v128c0 17.673-14.327 32-32 32-17.673 0-32-14.327-32-32V224zm128 32c-17.673 0-32 14.327-32 32v64c0 17.673 14.327 32 32 32 17.673 0 32-14.327 32-32v-64c0-17.673-14.327-32-32-32z" />
      <path fill-rule="evenodd" clip-rule="evenodd" d="M384 0H128C57.308 0 0 57.308 0 128v256c0 70.692 57.308 128 128 128h256c70.692 0 128-57.308 128-128V128C512 57.308 454.692 0 384 0zM64 128c0-35.346 28.654-64 64-64h256c35.346 0 64 28.654 64 64v256c0 35.346-28.654 64-64 64H128c-35.346 0-64-28.654-64-64V128z" />
   </symbol>
   <symbol viewBox="0 0 512 512" id="print">
      <path d="M288 208c0-8.837 7.163-16 16-16s16 7.163 16 16-7.163 16-16 16-16-7.163-16-16zm80-16c-8.837 0-16 7.163-16 16s7.163 16 16 16h32c8.837 0 16-7.163 16-16s-7.163-16-16-16h-32z" fill="#000" />
      <path fill-rule="evenodd" clip-rule="evenodd" d="M192 0c-53.019 0-96 42.98-96 96-53.02 0-96 42.981-96 96v128c0 53.019 42.98 96 96 96 0 53.019 42.981 96 96 96h128c53.019 0 96-42.981 96-96 53.019 0 96-42.981 96-96V192c0-53.019-42.981-96-96-96 0-53.02-42.981-96-96-96H192zM96 160c-17.673 0-32 14.327-32 32v128c0 17.673 14.327 32 32 32v-96h320v96c17.673 0 32-14.327 32-32V192c0-17.673-14.327-32-32-32H96zm256-64c0-17.673-14.327-32-32-32H192c-17.673 0-32 14.327-32 32h192zM160 416v-96h192v96c0 17.673-14.327 32-32 32H192c-17.673 0-32-14.327-32-32z" />
   </symbol>
   <symbol viewBox="0 0 512 512" id="question-circle">
      <path d="M229.484 284.652v12.545h36.789v-10.172c0-6.781 1.157-12.263 3.471-16.445 2.406-4.182 8.052-10.285 16.937-18.31 12.957-11.302 21.75-21.474 26.378-30.516 4.627-9.042 6.941-19.78 6.941-32.212 0-18.649-5.646-33.568-16.937-44.758C291.864 133.595 276.732 128 257.666 128c-23.138 0-45.027 7.064-65.666 21.192l15.132 37.129c17.77-11.077 33.597-16.615 47.48-16.615 7.959 0 14.16 1.921 18.603 5.764 4.442 3.843 6.664 9.438 6.664 16.784 0 6.556-1.574 12.489-4.721 17.802-3.054 5.312-9.44 12.206-19.158 20.683-10.088 9.042-17.03 17.575-20.824 25.6-3.795 8.025-5.692 17.462-5.692 28.313zm1.805 48.996c-4.165 4.86-6.248 12.037-6.248 21.531 0 9.155 2.129 16.275 6.386 21.361 4.258 4.973 10.274 7.46 18.048 7.46 7.589 0 13.513-2.543 17.77-7.629 4.258-5.199 6.386-12.263 6.386-21.192 0-9.268-2.128-16.389-6.386-21.362-4.165-4.973-10.088-7.459-17.77-7.459-7.959 0-14.022 2.43-18.186 7.29z" />
      <path fill-rule="evenodd" clip-rule="evenodd" d="M256 512c141.385 0 256-114.615 256-256S397.385 0 256 0 0 114.615 0 256s114.615 256 256 256zm0-64c106.039 0 192-85.961 192-192S362.039 64 256 64 64 149.961 64 256s85.961 192 192 192z" fill="#000" />
   </symbol>
   <symbol viewBox="0 0 512 512" id="restore">
      <g clip-path="url(#clip0)" fill="#000">
         <path d="M256.001 64c-56.848 0-107.915 24.674-143.111 64H128c17.673 0 32 14.327 32 32 0 17.673-14.327 32-32 32H32c-17.673 0-32-14.327-32-32V64c0-17.673 14.327-32 32-32 17.673 0 32 14.327 32 32v22.67C110.867 33.569 179.524 0 256.001 0c141.385 0 256 114.615 256 256s-114.615 256-256 256C127.006 512 20.342 416.622 2.592 292.531c-2.502-17.495 9.651-33.706 27.147-36.209 17.495-2.502 33.706 9.652 36.208 27.147C79.252 376.485 159.303 448 256.001 448c106.039 0 192-85.961 192-192s-85.961-192-192-192z" />
         <path d="M288 238.868V160c0-17.673-14.327-32-32-32-17.673 0-32 14.327-32 32v95.986a31.9 31.9 0 0 0 5.278 17.626 32.185 32.185 0 0 0 9.6 9.427l95.375 63.583c14.705 9.803 34.573 5.83 44.376-8.875 9.803-14.705 5.83-34.573-8.875-44.376L288 238.868z" />
      </g>
      <defs>
         <clipPath id="clip0">
            <path d="M0 0h512v512H0z" />
         </clipPath>
      </defs>
   </symbol>
   <symbol viewBox="0 0 512 512" id="search">
      <path fill-rule="evenodd" clip-rule="evenodd" d="M358.151 403.405c-37.395 28.008-83.836 44.598-134.151 44.598-123.712 0-224-100.289-224-224.002C0 100.289 100.288 0 224 0s224 100.289 224 224.001c0 50.315-16.588 96.754-44.594 134.149l99.221 99.222c12.497 12.497 12.497 32.758 0 45.255-12.496 12.497-32.758 12.497-45.254 0l-99.222-99.222zM384 224.001c0 88.366-71.634 160.001-160 160.001S64 312.367 64 224.001s71.634-160 160-160 160 71.634 160 160z" />
   </symbol>
   <symbol viewBox="0 0 512 512" id="shopping-cart">
      <path d="M51.402 34.596c16.244-6.963 35.055.563 42.017 16.806l87.685 204.602h211.829l24.702-74.114c5.589-16.765 23.71-25.827 40.476-20.24 16.765 5.59 25.827 23.711 20.238 40.476l-31.737 95.221c-3.997 13.115-16.191 22.656-30.613 22.656H160.008c-13.396 0-24.869-8.23-29.637-19.912L34.595 76.613c-6.961-16.244.563-35.056 16.807-42.017zm140.605 397.405c0 26.509-21.49 47.999-47.999 47.999-26.509 0-47.998-21.49-47.998-47.999 0-26.509 21.489-47.999 47.998-47.999 26.509 0 47.999 21.49 47.999 47.999zM399.999 480c26.509 0 47.999-21.49 47.999-47.999 0-26.509-21.49-47.999-47.999-47.999-26.508 0-47.998 21.49-47.998 47.999 0 26.509 21.49 47.999 47.998 47.999z" />
   </symbol>
   <symbol viewBox="0 0 512 512" id="shortcut">
      <path d="M352 0c-17.673 0-32 14.327-32 32 0 17.673 14.327 32 32 32h50.739L233.366 233.373c-12.496 12.497-12.496 32.758 0 45.255 12.497 12.496 32.758 12.496 45.255 0L448 109.249V160c0 17.673 14.327 32 32 32 17.673 0 32-14.327 32-32V32c0-17.673-14.327-32-32-32H352z" />
      <path d="M96 64h128c17.673 0 32 14.327 32 32 0 17.673-14.327 32-32 32H96c-17.673 0-32 14.327-32 32v256c0 17.673 14.327 32 32 32h256c17.673 0 32-14.327 32-32V288c0-17.673 14.327-32 32-32 17.673 0 32 14.327 32 32v128c0 53.019-42.981 96-96 96H96c-53.02 0-96-42.981-96-96V160c0-53.019 42.98-96 96-96z" />
   </symbol>
   <symbol viewBox="0 0 512 512" id="social-facebook">
      <path d="M384 165.788h-87.185v-53.14c0-19.956 14.233-24.609 24.257-24.609h61.525V.307L297.865 0c-94.062 0-115.467 65.433-115.467 107.307v58.481H128v90.403h54.398V512h114.417V256.191h77.206L384 165.788z" fill="#000" />
   </symbol>
   <symbol viewBox="0 0 512 512" id="star-half">
      <path fill-rule="evenodd" clip-rule="evenodd" d="M256 416l160 96-32-185.243L512 192l-176.892-23.46L256 0l-79.108 168.54L0 192l128 134.757L96 512l160-96zm0-74.636V150.625l36.03 76.762 87.113 11.553-63.68 67.042 13.695 79.277L256 341.364z" fill="#000" />
   </symbol>
   <symbol viewBox="0 0 512 512" id="star-o">
      <path fill-rule="evenodd" clip-rule="evenodd" d="M256 341.364l73.158 43.895-13.695-79.277 63.68-67.042-87.113-11.553L256 150.625l-36.03 76.762-87.113 11.553 63.68 67.042-13.695 79.277L256 341.364zM96 512l32-185.243L0 192l176.892-23.46L256 0l79.108 168.54L512 192 384 326.757 416 512l-160-96-160 96z" />
   </symbol>
   <symbol viewBox="0 0 512 512" id="star">
      <path fill-rule="evenodd" clip-rule="evenodd" d="M256 416L96 512l32-185.243L0 192l176.892-23.46L256 0l79.108 168.54L512 192 384 326.757 416 512l-160-96z" fill="#000" />
   </symbol>
   <symbol viewBox="0 0 512 512" id="times-circle-full">
      <path fill-rule="evenodd" clip-rule="evenodd" d="M256 480c123.712 0 224-100.288 224-224S379.712 32 256 32 32 132.288 32 256s100.288 224 224 224zm86.486-310.634c-12.497-12.497-32.758-12.497-45.255 0l-41.373 41.373-41.372-41.373c-12.497-12.497-32.758-12.497-45.255 0s-12.497 32.758 0 45.255l41.373 41.372-41.373 41.373c-12.497 12.497-12.497 32.758 0 45.255s32.758 12.497 45.255 0l41.372-41.373 41.373 41.373c12.497 12.497 32.758 12.497 45.255 0s12.497-32.758 0-45.255l-41.373-41.373 41.373-41.372c12.497-12.497 12.497-32.758 0-45.255z" />
   </symbol>
   <symbol viewBox="0 0 512 512" id="times-small">
      <path d="M416 141.714L370.286 96 255.999 210.287 141.714 96.001 96 141.715l114.286 114.286L96.002 370.284l45.714 45.714 114.283-114.284 114.285 114.285 45.714-45.714-114.285-114.284L416 141.714z" fill="#000" />
   </symbol>
   <symbol viewBox="0 0 512 512" id="times">
      <path d="M150.627 105.373c-12.496-12.497-32.758-12.497-45.254 0-12.497 12.496-12.497 32.758 0 45.254L210.745 256 105.373 361.373c-12.497 12.496-12.497 32.758 0 45.254 12.496 12.497 32.758 12.497 45.254 0L256 301.255l105.373 105.372c12.496 12.497 32.758 12.497 45.254 0 12.497-12.496 12.497-32.758 0-45.254L301.255 256l105.372-105.373c12.497-12.496 12.497-32.758 0-45.254-12.496-12.497-32.758-12.497-45.254 0L256 210.745 150.627 105.373z" />
   </symbol>
   <symbol viewBox="0 0 512 512" id="trash">
      <path d="M192 176c0-8.837 7.163-16 16-16s16 7.163 16 16v192c0 8.837-7.163 16-16 16s-16-7.163-16-16V176zm112-16c-8.837 0-16 7.163-16 16v192c0 8.837 7.163 16 16 16s16-7.163 16-16V176c0-8.837-7.163-16-16-16z" fill="#000" />
      <path fill-rule="evenodd" clip-rule="evenodd" d="M256 0c-17.673 0-32 14.327-32 32H64c-17.673 0-32 14.327-32 32 0 17.673 14.327 32 32 32v288c0 70.692 57.308 128 128 128h128c70.692 0 128-57.308 128-128V96c17.673 0 32-14.327 32-32 0-17.673-14.327-32-32-32H288c0-17.673-14.327-32-32-32zM128 96v288c0 35.346 28.654 64 64 64h128c35.346 0 64-28.654 64-64V96H128z" />
   </symbol>
   <symbol viewBox="0 0 512 512" id="twitter">
      <path d="M512 85.032a197.538 197.538 0 0 1-60.333 17.804c21.701-13.988 38.341-36.145 46.188-62.577-20.298 12.97-42.768 22.38-66.704 27.461C411.997 45.742 384.694 32 354.481 32c-58.005 0-105.034 50.637-105.034 113.102 0 8.852.925 17.48 2.723 25.772-87.303-4.722-164.711-49.742-216.521-118.172C26.607 69.4 21.43 88.825 21.43 109.572c0 39.234 18.541 73.858 46.728 94.135-17.212-.593-33.415-5.685-47.58-14.156-.01.47-.01.951-.01 1.432 0 54.789 36.209 100.491 84.267 110.898a98.555 98.555 0 0 1-27.677 3.961 96.951 96.951 0 0 1-19.768-2.036c13.376 44.93 52.164 77.639 98.122 78.546-35.95 30.337-81.233 48.421-130.455 48.421-8.47 0-16.837-.537-25.058-1.589C46.5 461.289 101.708 480 161.022 480c193.22 0 298.866-172.334 298.866-321.794 0-4.901-.093-9.791-.291-14.648 20.517-15.913 38.331-35.843 52.403-58.526z" />
   </symbol>
   <symbol viewBox="0 0 512 512" id="upload">
      <path d="M64 253.649C64 175.823 128.064 112 208 112c66.68 0 122.484 44.516 139.004 104.497 4.197 15.237 18.728 24.852 33.939 23.359 1.006.095 2.026.144 3.057.144 35.346 0 64 28.654 64 64v16c0 44.183-35.817 80-80 80h-48c-17.673 0-32-14.327-32-32v-50.748l9.373 9.372c12.496 12.497 32.758 12.497 45.254 0 12.497-12.496 12.497-32.758 0-45.254l-64-64c-12.496-12.497-32.758-12.497-45.254 0-.124.123-.247.248-.368.373l-63.632 63.633c-12.497 12.496-12.497 32.758 0 45.254 12.496 12.497 32.758 12.497 45.254 0l9.373-9.372V368c0 53.019 42.981 96 96 96h48c79.529 0 144-64.471 144-144v-16c0-64.888-48.283-118.499-110.881-126.865C370.354 101.282 295.343 48 208 48 93.532 48 0 139.668 0 253.649c0 73.04 38.512 137.003 96.141 173.405 14.942 9.439 34.706 4.977 44.144-9.964 9.439-14.942 4.977-34.706-9.965-44.144C90.247 347.632 64 303.564 64 253.649z" />
   </symbol>
   <symbol viewBox="0 0 512 512" id="user">
      <path fill-rule="evenodd" clip-rule="evenodd" d="M402.006 274.309C420.944 246.238 432 212.41 432 176 432 78.798 353.202 0 256 0S80 78.798 80 176c0 36.41 11.056 70.238 29.994 98.309C72.844 296.712 48 337.455 48 384c0 70.692 57.308 128 128 128h160c70.692 0 128-57.308 128-128 0-46.545-24.844-87.288-61.994-109.691zM158.368 322.46C186.305 341.12 219.882 352 256 352s69.695-10.88 97.632-29.54C380.404 330.116 400 354.77 400 384c0 35.346-28.654 64-64 64H176c-35.346 0-64-28.654-64-64 0-29.23 19.596-53.884 46.368-61.54zm168.874-60.035C352.134 241.882 368 210.794 368 176c0-61.856-50.144-112-112-112s-112 50.144-112 112c0 31.339 12.872 59.672 33.616 80 20.201 19.795 47.867 32 78.384 32 27.062 0 51.882-9.598 71.242-25.575z" />
   </symbol>
   <symbol viewBox="0 0 512 512" id="view">
      <path fill-rule="evenodd" clip-rule="evenodd" d="M260.426 96c30.6 0 151.997 5.9 239.295 132.2.453.649.941 1.332 1.451 2.047 6.255 8.765 15.962 22.368 7.549 37.253C430.723 405.5 303.725 416 268.526 416h-14.9c-30.999 0-153.796-5.9-241.195-132.2a192.561 192.561 0 0 0-1.736-2.472l-.002-.003c-6.227-8.776-15.739-22.18-7.461-36.825C81.33 106.5 210.027 96 245.627 96h14.799zm-58.305 166.5c0 28.2 22.799 51 50.999 51 28.199 0 50.999-22.8 50.999-51s-22.8-51-50.999-51c-28.2 0-50.999 22.8-50.999 51zM56.03 256.597c26.8-42.1 61.999-72.7 104.898-91 6.6-2.8 13.1-5.2 19.399-7.3-32.799 23-54.298 61.1-54.298 104.2 0 29.7 10.199 57 27.299 78.7-32.599-15.8-67.299-41.9-97.298-84.6zm324.299 5.903c0 33.6-13.099 64.1-34.299 86.8 36.099-14.3 77.299-41.7 110.398-93.9-41.899-59.7-92.098-86.8-132.997-98.9 34.299 22.8 56.898 61.8 56.898 106z" />
   </symbol>
   <symbol viewBox="0 0 512 512" id="vimeo">
      <g clip-path="url(#clip0)">
         <path d="M0 153.911l20.794 27.347s42.893-33.894 57.19-16.952c14.297 16.952 68.859 221.572 87.078 259.336 15.901 33.116 59.765 76.907 107.861 45.617 48.065-31.269 207.923-168.121 236.528-329.717 28.595-161.576-192.363-127.744-215.744 13.03 58.473-35.222 89.706 14.317 59.776 70.382-29.888 56.013-57.179 92.553-71.466 92.553-14.266 0-25.253-37.474-41.599-103-16.915-67.747-16.801-189.764-87.067-175.934C87.078 49.613 0 153.91 0 153.91z" />
      </g>
      <defs>
         <clipPath id="clip0">
            <path d="M0 0h512v512H0z" />
         </clipPath>
      </defs>
   </symbol>
   <symbol viewBox="0 0 512 512" id="warning">
      <g clip-path="url(#clip0)" fill="#000">
         <path d="M224 224c0-17.673 14.327-32 32-32 17.673 0 32 14.327 32 32v64c0 17.673-14.327 32-32 32-17.673 0-32-14.327-32-32v-64zm32 128c-17.673 0-32 14.327-32 32 0 17.673 14.327 32 32 32 17.673 0 32-14.327 32-32 0-17.673-14.327-32-32-32z" />
         <path fill-rule="evenodd" clip-rule="evenodd" d="M297.583 26.947c-18.482-35.93-64.684-35.93-83.166 0L6.504 431.158C-11.976 467.088 11.124 512 48.087 512h415.826c36.962 0 60.064-44.912 41.582-80.842L297.583 26.948zM256 86.025L69.811 448h372.377L256 86.025z" />
      </g>
      <defs>
         <clipPath id="clip0">
            <path d="M0 0h512v512H0z" />
         </clipPath>
      </defs>
   </symbol>
</svg>